<svg xmlns="http://www.w3.org/2000/svg" viewBox="0 0 1000 1000"><defs><style>.cls-1{fill:#ec1f27;}.cls-2{fill:#4cf06f;}.cls-3{fill:#0fbb34;}.cls-4{fill:#376bec;}.cls-5{fill:#231f20;}.cls-6{fill:#fff;}</style></defs><g id="Layer_2" data-name="Layer 2"><g id="Layer_1-2" data-name="Layer 1"><path class="cls-1" d="M883.11,499.28A381.46,381.46,0,0,1,816.74,715c-.13.19-.25.37-.39.56s-.38.57-.58.85a382.17,382.17,0,0,1-23.31,30.54c-.45.53-.91,1.07-1.38,1.6-4.18,4.89-8.49,9.71-12.94,14.38-.68.71-1.36,1.43-2,2.13q-6.81,7.1-14,13.86l-2.87,2.66a379.23,379.23,0,0,1-30.52,25.28q-2.4,1.81-4.85,3.58-3.11,2.25-6.28,4.43-2.8,1.95-5.66,3.84a382.92,382.92,0,0,1-54.26,30.11c-3,1.38-6.11,2.7-9.22,4l-2.29,1q-5.17,2.14-10.43,4.14a384.91,384.91,0,0,1-272.12,0q-5.25-2-10.43-4.14l-2.29-1c-3.11-1.3-6.18-2.62-9.22-4a382.92,382.92,0,0,1-54.26-30.11q-2.85-1.89-5.66-3.84-3.18-2.18-6.28-4.43-2.44-1.77-4.85-3.58a380.18,380.18,0,0,1-30.49-25.28l-2.87-2.66c-4.78-4.49-9.45-9.13-14-13.86-.7-.71-1.38-1.42-2.06-2.13-4.45-4.67-8.76-9.49-12.94-14.38-.47-.53-.93-1.07-1.38-1.6a382.17,382.17,0,0,1-23.31-30.54c-.2-.28-.39-.56-.58-.85s-.26-.37-.39-.56a381.46,381.46,0,0,1-66.37-215.69q0-13.95,1-27.68a380.45,380.45,0,0,1,32.5-129.33c60-133.48,194.1-226.44,349.93-226.44,147.52,0,275.58,83.29,339.69,205.4a381.54,381.54,0,0,1,43.7,171.06C883.08,494.63,883.11,496.94,883.11,499.28Z"/><path class="cls-2" d="M294.35,532.27a138.29,138.29,0,0,1,.53,27.29,140.28,140.28,0,0,0-8.49-27.66,151.89,151.89,0,0,0-18.91-32.73,162.82,162.82,0,0,0-24.36-25.77,160.41,160.41,0,0,0-26.37-18.27,147.17,147.17,0,0,0-59.66-18.24c41.84,43.73,58,110.38,40.91,168.43.37-54.81-32.39-108.35-80.77-133.72a380.45,380.45,0,0,1,32.5-129.33c40-11.73,84.22-9.7,122.57,6.88-42.63-15.37-93.19-6.18-127.67,23.23,32.68-3.78,66.26-7.5,98,1,19,5.05,37.28,15.48,50.25,29.95A73.51,73.51,0,0,1,307.79,428a22.45,22.45,0,0,1,.79,2.4,58.2,58.2,0,0,1,1.84,7.33,155.49,155.49,0,0,0-17.51-12.66,158.47,158.47,0,0,0-20-10.54c-4.35-2-8.77-3.7-13.28-5.25a168.71,168.71,0,0,0-28-7.07q-7.39-1.23-14.89-1.75a160.44,160.44,0,0,0-53.74,5,143.23,143.23,0,0,1,53.74,15.11,144.88,144.88,0,0,1,19.15,11.62,141.41,141.41,0,0,1,25,22.92l.06,0a138.36,138.36,0,0,1,9.22,12.1,145.26,145.26,0,0,1,24.14,65Z"/><path class="cls-3" d="M732,411.48c.43-1.35.89-2.69,1.39-4C732.93,408.8,732.43,410.13,732,411.48Z"/><path class="cls-2" d="M862.19,567.4a138.07,138.07,0,0,1-1-94.7c-42,12.82-73.5,54.27-74.66,98.14-3.83-30.42-7.64-61.66-.42-91.46s27.94-58.34,57.71-65.75a101.21,101.21,0,0,0-61.38,10.71,98.2,98.2,0,0,0-14.66,9.45c-1.18.93-2.34,1.86-3.47,2.84a98.55,98.55,0,0,0-20.13,23.94,96.35,96.35,0,0,0-6.57,12.83,99.19,99.19,0,0,0-8,38.35,147.27,147.27,0,0,1,2.31-52.59,143.71,143.71,0,0,1,21.88-49.71c2-2.93,4.14-5.75,6.4-8.51a133.18,133.18,0,0,1,9-10.09,145.65,145.65,0,0,1,71.9-39.9c-34.06-9-71.93,5.78-94,32.82a83.31,83.31,0,0,0-8.65,12.69,78,78,0,0,0-5.13,11c1.29-3.73,2.7-7.42,4.34-11a128.8,128.8,0,0,1,101.61-75.23,381.54,381.54,0,0,1,43.7,171.06C864.9,512.22,856.1,541,862.19,567.4Z"/><path class="cls-4" d="M816.74,716.38a383.07,383.07,0,0,1-24.28,32l-.16.19c-4.57,5.38-9.29,10.67-14.16,15.79l-.69.72Q770,772.86,762.1,780.3l-1.35,1.25a375.67,375.67,0,0,1-32,26.69l-2.92,2.17q-4,3-8.21,5.84c-1.18.82-2.36,1.63-3.55,2.43a383.46,383.46,0,0,1-56.37,31.52c-2.68,1.22-5.39,2.39-8.13,3.54l-1.09.46q-4.5,1.9-9.07,3.68a384.78,384.78,0,0,1-279.42,0q-4.56-1.77-9.07-3.68l-1.09-.46c-2.74-1.15-5.45-2.32-8.13-3.54a383.46,383.46,0,0,1-56.37-31.52c-1.19-.8-2.37-1.61-3.55-2.43q-4.15-2.85-8.21-5.84l-2.92-2.17a380,380,0,0,1-32-26.69l-1.35-1.25c-5.26-4.93-10.38-10-15.37-15.27l-.7-.72c-4.87-5.12-9.59-10.41-14.16-15.79l-.16-.19a383.07,383.07,0,0,1-24.28-32Z"/><path class="cls-5" d="M705.06,556.89c-6.66.17-65.48,1.65-77.59,4.67-8.59,2.13-24.21-1.65-29.52-3.29a5.14,5.14,0,0,0-3.05,9.82c.71.21,14.24,4.38,26.36,4.38a36.48,36.48,0,0,0,8.69-.93c9.31-2.31,57.55-3.94,75.37-4.34a5.16,5.16,0,0,0-.26-10.31Z"/><path class="cls-6" d="M701.05,385.47a11.71,11.71,0,0,0-.44-1.47,2.61,2.61,0,0,0-.33-.58,4.23,4.23,0,0,0-.32-.64c-1.34-1.74-29.07-36.71-81.7-49.68a45.58,45.58,0,0,0,15.6-33.76c0-19.7-12.58-32.79-18.61-38a40.2,40.2,0,0,0,3-14.18c.45-14-6.22-28.11-18.48-38.51-8.79-7.57-19.77-11.23-30.16-12.84-.07-.13-.07-.25-.13-.38-.64-1.22-16.82-31.45-56-31.45-28.63,0-44.16,13.67-50.7,21.44a30.81,30.81,0,0,0-13.87-6.1c-13.79-2.44-28.49,4.11-39.27,17.33-16.11,19.83-15.34,42.29-14.31,50.89-14.45,9.24-27.92,24.45-27.92,49.16,0,16.11,5,31.19,14.95,44.93-36.07,14.95-59.62,48.07-60.84,49.87a1.52,1.52,0,0,0-.45.77.32.32,0,0,0-.13.25,5.12,5.12,0,0,0-.38,1.74v.38a7.42,7.42,0,0,0,.32,1.73l.06.07c.32.9,3.53,8.34,10.85,17.52A101.49,101.49,0,0,0,367,442.66c-20,5.77-42.93,11-72.84,11a5.16,5.16,0,0,0-5.14,5.19,5.09,5.09,0,0,0,5.14,5.07c38.63,0,65.91-8.28,89.85-15.66,17.46-5.39,32.54-10,48.13-10,32.41,0,48.72,16.56,49,16.88L491.89,466a5.11,5.11,0,0,0,3.6,1.48,5.28,5.28,0,0,0,2.72-.7l.06,0a.7.7,0,0,0,.17-.09,1.57,1.57,0,0,1,.19-.18l.39-.32.19-.15a5.15,5.15,0,0,0,0-7.25l-2.44-2.44V377.32a2.56,2.56,0,0,1,2.51-2.57,2.66,2.66,0,0,1,2.56,2.57v75a5.14,5.14,0,0,0,10.27,0V431.23a62.43,62.43,0,0,0,7.57,6.87l0,0,0,0a68.43,68.43,0,0,0,6.22,4.37,5.29,5.29,0,0,0,7.13-1.73,5.23,5.23,0,0,0-1.8-7.13c-.38-.19-.71-.45-1-.64h0a0,0,0,0,1,0,0c-11.94-7.64-16.94-16.82-18.1-19.39V399.34l23.3-1.1,9.56,30.3v.06l1.67,5.39a5.16,5.16,0,0,0,4.88,3.6,7.31,7.31,0,0,0,.8,0l.8-.15a5.21,5.21,0,0,0,3.34-6.48l-1.28-4.3v0l-9.11-28.79,15.92-.71,15.32,27.43,0,0,3.27,5.71A5.25,5.25,0,0,0,585,432.9a4.83,4.83,0,0,0,2.5-.64,5.18,5.18,0,0,0,2-7.06l-.45-.77v0l-15.52-27.77,32.73-1.54,23.11,37.74c-1,.45-1.93.83-3,1.22h-.12a6.3,6.3,0,0,1-.9.45,5.12,5.12,0,0,0-2.76,6.73,5,5,0,0,0,4.75,3.15,5.55,5.55,0,0,0,2-.32c2.81-1.15,5.55-2.43,8.17-3.77l0,0a8.51,8.51,0,0,0,1.54-.77c.07-.06.19-.06.26-.13s.13,0,.13-.06c38-19.06,59.62-49,60.58-50.32a3.35,3.35,0,0,0,.39-.83,2.08,2.08,0,0,0,.25-.58,5.42,5.42,0,0,0,.39-1.8v-.06C701.12,385.6,701.05,385.54,701.05,385.47ZM654.65,359,641.3,383.23l-22.07,1L641.3,352.1C646.12,354.35,650.61,356.59,654.65,359Zm-31.12-59.63c0,12.65-7.51,24.71-19.07,31-5.58-.83-11.42-1.54-17.45-1.86,7.89-9,14.63-23.36,14.63-46.4,0-.9-.13-1.8-.13-2.7a52.67,52.67,0,0,0,8.54-8.85C615.12,275.21,623.53,285.29,623.53,299.34ZM593,216.42c9.88,8.48,15.28,19.52,15,30.36a31.19,31.19,0,0,1-7.7,19.45c-5.77-35.3-29.65-50.13-34.72-52.82A22.7,22.7,0,0,0,561.4,207a16.75,16.75,0,0,0-1.86-1.8C570.77,205.71,583.67,208.34,593,216.42ZM567.3,227.08c9.18,7.51,24,24.32,24,55,0,22.27-6.93,38.38-20.09,46.59-.06,0-.06,0-.06.07-2.57.32-5.14.9-7.71,1.47-.06.07-.25.07-.32.13A79.61,79.61,0,0,0,550,334.9l-1.93-.51h-.26c-.06,0-.19-.07-.25-.07-.58-.06-46.79-5.71-72.08-39.34a74.15,74.15,0,0,1-7.5-12.19,69.91,69.91,0,0,0,29.65,7,61.19,61.19,0,0,0,26.7-6.16C549.91,271.17,565.57,243.12,567.3,227.08Zm-10.2-1.61c-1,11.49-14.31,37.68-37.35,48.91-17.78,8.6-37.16,6.48-57.44-6.29a101.34,101.34,0,0,1-3.47-28.5c8,6.68,20.6,15.15,34,15.73a30.38,30.38,0,0,0,22.85-9c17.46-16.68,22.59-31.25,24.07-39,4.17.71,10.33,2.5,14,6.55C556.46,216.87,557.55,220.66,557.1,225.47Zm-43.64-51.15c23.62,0,37.16,12.78,43.19,20.41A115.15,115.15,0,0,0,534,196.66c-.07,0-.2.13-.33.13s-.32.12-.51.19-.19.13-.25.19-.13,0-.13.07a3.55,3.55,0,0,0-.84.51,1.9,1.9,0,0,0-.38.19,92.12,92.12,0,0,1-8.35,7.19c-4.23-11-12.32-17.33-22.78-17.33-14.12,0-22.33,7.19-26.63,12.84a44,44,0,0,0-4-7.7C474.37,187.22,487.4,174.32,513.46,174.32Zm1,36.46c-7,3.78-13.67,5.26-19.89,4.43a27.27,27.27,0,0,1-13.8-6.55c2.31-3.72,8.15-10.53,19.7-10.53C508.39,198.13,512.43,204.42,514.42,210.78ZM463.72,213a26.12,26.12,0,0,1,4.11-2.89c4,5.14,12.38,13.41,25.16,15.28a36.06,36.06,0,0,0,5.13.38c9,0,18.36-3.4,27.92-9.95-3,6.29-8.28,14.32-17.52,23.11a20.07,20.07,0,0,1-15.34,6.16c-14.25-.58-28.82-13.86-33.5-18.55.38-2.63.7-5.26,1.15-8A11.54,11.54,0,0,1,463.72,213Zm-46.08-9.88c8.34-10.27,19.44-15.41,29.52-13.61a20.35,20.35,0,0,1,12.13,6.74.31.31,0,0,1,.13.19,24.77,24.77,0,0,1,3.34,4.62,45,45,0,0,0-5.91,4.24,20.46,20.46,0,0,0-5.45,8.85,87.3,87.3,0,0,0-23.24,20.35,109.47,109.47,0,0,0-23,7.64C404.8,233.3,406,217.39,417.64,203.08Zm-40,93.63c0-18.29,8.92-32.66,26.44-42.61A87,87,0,0,1,420,247.23a69.74,69.74,0,0,0-5.45,13.8c-6.23,22.33-1.67,47.11,13.41,73.87-3.46-.26-7.12-.51-10.91-.51A87.59,87.59,0,0,0,392.55,338C382.73,325.4,377.66,311.54,377.66,296.71Zm53.26,48.84,16.43,43.77h-23l-9.5-44.47a12.33,12.33,0,0,1,2.18-.13A117.38,117.38,0,0,1,430.92,345.55Zm-26.31.26,9.24,43.51H389.66L368,361.15C378.55,354.09,391,348.18,404.61,345.81Zm-45.05,21.31,17.07,22.2H336.32A165.46,165.46,0,0,1,359.56,367.12ZM359.17,426a92.83,92.83,0,0,1-25-26.38h43.12Zm27.28,10.78-4.37,1.35-1.34-.64a87.45,87.45,0,0,1-12.78-6l21.89-31.9h20.79L386.51,436.5A.39.39,0,0,0,386.45,436.75Zm42.61-8.66a128.22,128.22,0,0,0-27.59,4.36l21.43-32.86h22.85Zm57.38,18a58.2,58.2,0,0,0-9.31-6.61,66.77,66.77,0,0,0,9.31-8.22Zm0-32.48c-1.28,2.76-6.61,12.71-20.09,20.6a90.1,90.1,0,0,0-25.48-5.77l16.82-28.82h28.75Zm0-24.26H458.33l-15.66-41.84c26.63,5.84,40.18,19.7,43.77,23.94ZM504,365.45a11.86,11.86,0,0,0-9.18-.07c-4-4.87-20.6-22.59-53.84-28.75-16.75-26.89-22.4-51.41-16.5-72.71,4.82-17.52,16.5-29.27,24.71-35.81-1.54,16-.26,30.74,3.66,44a7.18,7.18,0,0,0,.32,1,90.23,90.23,0,0,0,14.12,28.18c20.22,26.76,51.22,37.29,67.77,41.2A191.06,191.06,0,0,0,504,365.45ZM534.7,388l-22.59,1V371.93c5.39-4.81,23.43-20.09,43.19-28.17Zm27.66-1.22-16.11.71,22.34-47.95a47.25,47.25,0,0,1,9.43-1,145.42,145.42,0,0,1,21.57,1.54Zm13.67-.64,35.05-44.09a150.79,150.79,0,0,1,20.47,6.09l-25.22,36.65Zm62.58,42L618,394.65,642,393.56l16.43,22A147.83,147.83,0,0,1,638.61,428.22Zm27.79-19L654.33,393l30.23-1.35A180,180,0,0,1,666.4,409.22Zm-13-26.51,10-18.29a154.13,154.13,0,0,1,21.11,16.95Z"/><path class="cls-6" d="M377.9,586.8c-30.25-38.94-82.56-28.95-84.77-28.52a5.15,5.15,0,0,0,2,10.1c.48-.1,48.25-9.21,74.64,24.72a64.31,64.31,0,0,0,7.72,8.34,5.14,5.14,0,0,0,7.26-.34,5.15,5.15,0,0,0-.33-7.27,55.83,55.83,0,0,1-6.53-7Z"/><path class="cls-6" d="M596,555.43l-1.4-1.37-67.47-67.45a5.15,5.15,0,0,0-7.29,7.27C547.5,521.56,584,558,587.32,561.33l1.47,1.47c5.29,5.17,19.35,18.92,19.42,29.26a8.81,8.81,0,0,1-2.79,6.56,12.81,12.81,0,0,1-9,4c-7.11-.08-13.77-6.16-15.19-7.57-3-3.08-6-5.74-8.3-7.8-1-.91-1.86-1.65-2.38-2.15l-22.24-22.24L541,570.18l22.26,22.25c.62.63,1.6,1.51,2.83,2.59,4.79,4.23,16,14.16,16.25,21.65a6.49,6.49,0,0,1-2.2,5c-2.37,2.39-4.8,3.5-7.4,3.36-5.3-.26-10.65-5.37-12.28-7.29,0,0,0,0,0-.05a57.46,57.46,0,0,0-5-5.74l-26.78-26.79-7.27,7.29,26.77,26.77c4.36,4.37,7,8.34,7.86,11.81s-.14,6.38-3.18,9.43c-5.08,5.08-12.64,1.42-15.19-.08a29.57,29.57,0,0,0-4.52-5.9c-6.22-6.23-22.18-24.18-22.34-24.37a5.15,5.15,0,1,0-7.68,6.85c.66.75,16.29,18.36,22.74,24.81a17.14,17.14,0,0,1,4.95,9.11,9.49,9.49,0,0,1-2.91,8.68,5,5,0,0,1-3.72,1.48c-3.45,0-11.58-2.47-27.18-18.58a5.15,5.15,0,1,0-7.39,7.17c14.08,14.54,25.36,21.64,34.5,21.7h.14a15.17,15.17,0,0,0,10.93-4.48,20,20,0,0,0,6-14.15,24.52,24.52,0,0,0,5.33.6,18.67,18.67,0,0,0,13.59-5.55c4.06-4.06,6.22-8.69,6.44-13.61a20.26,20.26,0,0,0,5.62,1.14,7.23,7.23,0,0,0,.93,0c5.19,0,10.12-2.18,14.29-6.37a16.76,16.76,0,0,0,5.2-12.57,18,18,0,0,0-.55-3.84,25.71,25.71,0,0,0,4.15.44h.33c6,0,11.46-2.39,16.16-7.08A18.83,18.83,0,0,0,618.5,592c-.09-14.63-15.8-30-22.51-36.58Z"/><path class="cls-5" d="M499.66,619.86a14.87,14.87,0,0,0-10.46-4.24,19.91,19.91,0,0,0-4.69.64,27.6,27.6,0,0,0,3.15-12.06,18.7,18.7,0,0,0-5.78-13.8,15.44,15.44,0,0,0-11.16-4.82,21.59,21.59,0,0,0-8.28,1.86,17.89,17.89,0,0,0-6.1-12.64c-8.22-7.57-17.71-5.07-25.86,0a10.63,10.63,0,0,0,.06-1.35A14.3,14.3,0,0,0,426,562.86,13,13,0,0,0,416.8,559c-8.72,0-16.81,8.15-23.29,14.76l-1.35,1.29a113.82,113.82,0,0,0-12.07,14.25.06.06,0,0,0-.06.06c-.9,1.22-1.67,2.5-2.5,3.72a54.12,54.12,0,0,0-2.76,5.59c0,.05,0,.06-.06.08a.06.06,0,0,0,0,0c-3.91,9.63-1.22,15.54,2.12,18.87A14.09,14.09,0,0,0,386.9,622a17.42,17.42,0,0,0,5.07-1c-1.86,6.67-1.22,13,3.72,18A18.41,18.41,0,0,0,409,644.56a20.48,20.48,0,0,0,5.77-.83c-.7,5.52.39,10.65,4.69,14.95a16.7,16.7,0,0,0,11.87,5.14c5.2,0,10.33-2.38,15.08-5.71-1.09,5.26-.45,10.26,3.21,14.44a12.81,12.81,0,0,0,9.82,4.36c10.85,0,24.45-11.81,33.44-24l0,0a69.68,69.68,0,0,0,5.75-8.77h0a.08.08,0,0,0,.05-.07q1.44-2.7,2.5-5.2C505.37,628.33,502.68,622.68,499.66,619.86ZM386.9,611.7a3.4,3.4,0,0,1-2.76-1.34c-2.18-2.12-.58-6.49,1.15-9.89.2-.38.45-.77.58-1.09s.39-.64.58-1c3.85-6.49,9.82-12.84,13-16.05l1.28-1.28c4.36-4.43,11.62-11.68,16-11.68a3,3,0,0,1,2.19.89,4.89,4.89,0,0,1,1.28,3.34c.07,6.29-7.64,16.82-15.27,24.52L403.13,600C399.16,604.07,391.77,611.7,386.9,611.7Zm16.11,20c-6-6,5.19-22.52,19-36.39,13.74-13.67,22.15-17.71,27.34-12.9,2,1.8,6,5.52-1.66,15.15-2.76,2.5-5.59,5.2-8.35,8-6.22,6.22-13.86,14.76-19,23.62C416,632.76,408.53,637.31,403,631.66Zm50.63,6.17c-5.71,5.84-15.34,15.65-22.33,15.65a6.2,6.2,0,0,1-4.62-2.11c-6.48-6.42,5.39-24,19.89-38.64,2.25-2.18,5.07-5.07,8.28-7.83.13-.13.32-.19.39-.32l.06-.06c5.2-4.56,11-8.6,15.41-8.6a5.23,5.23,0,0,1,3.85,1.73,8.77,8.77,0,0,1,2.82,6.55c-.06,10.07-14,23.87-20,29.77L456,635.39C455.25,636.16,454.41,636.93,453.64,637.83Zm5.78,28.75a2.24,2.24,0,0,1-2-.77c-4-4.49,2.63-17,16-30.36,6-5.9,11.87-9.56,15.79-9.56a4.44,4.44,0,0,1,3.34,1.41c.77.71.83,3.4-.9,7.77C486.05,648.93,468,666.58,459.42,666.58Z"/><path class="cls-5" d="M459.87,516.72c0-22.44,35.26-48,52.21-60.31,3.67-2.68,6.58-4.77,8.52-6.39,11.63-9.61,36.1-15.37,65.43-15.37,22.63,0,41.34,10.46,53,19.2,14.67,11,61,11.18,66.13,11.18a5.15,5.15,0,0,0,0-10.29h-.5c-18.48,0-50.55-2.44-59.46-9.13-13-9.7-33.74-21.26-59.21-21.26-32.12,0-58.37,6.48-72,17.74-1.69,1.4-4.61,3.53-8,6-19.68,14.29-56.26,40.81-56.47,68.44-.23,2.88-1.9,28.06,9.46,40.51a21.37,21.37,0,0,0,16.43,7.12c5.81,0,10.51-1.84,13.94-5.45,7.4-7.8,6.73-21.59,6.2-32.66-.2-4.33-.49-10.21.06-11.52,6-7.71,19-19.12,27.82-19.12a5.15,5.15,0,0,0,0-10.3c-14.75,0-31,16.68-35.93,23.1-2.94,3.75-2.64,9.87-2.22,18.33.41,8.63,1,20.47-3.38,25.07-.92.95-2.6,2.23-6.49,2.23a11.18,11.18,0,0,1-8.81-3.73c-7.28-8-7.37-26.44-6.8-32.9a3.62,3.62,0,0,0,0-.47Z"/><path class="cls-6" d="M816.74,716.38a383.07,383.07,0,0,1-24.28,32l-.16.19H207l-.16-.19a383.07,383.07,0,0,1-24.28-32h1c-.2-.28-.39-.56-.58-.85H816.35c-.19.29-.38.57-.58.85Z"/><path class="cls-6" d="M777.45,765Q770,772.86,762.1,780.3l-1.35,1.25H238.6l-1.35-1.25c-5.26-4.93-10.38-10-15.37-15.27Z"/><path class="cls-6" d="M725.79,810.41q-4,3-8.21,5.84c-1.18.82-2.36,1.63-3.55,2.43H285.29c-1.19-.8-2.37-1.61-3.55-2.43q-4.15-2.85-8.21-5.84Z"/><path class="cls-6" d="M649.53,853.74H349.79l1.09.46q4.5,1.9,9.07,3.68H639.37Z"/><path class="cls-5" d="M960.67,305.35a500.08,500.08,0,1,0-794.2,567.13,500,500,0,0,0,164.45,98.18,497.89,497.89,0,0,0,115.47,26.49l0-.48h0A199.13,199.13,0,0,0,468.11,999c7.08.45,14.29.75,21.45.89,3.47.08,7,.12,10.44.12,3.71,0,7.47,0,11.19-.33h.09c7.22.05,14.52-.27,21.68-.75s14.5-1.09,21.64-1.87A499.43,499.43,0,0,0,832.68,873.27,501.16,501.16,0,0,0,954.79,708a501.18,501.18,0,0,0,5.88-402.64ZM768.08,800.79a402.21,402.21,0,0,1-224,99.75q-8.69.94-17.48,1.5t-17.47.78c-3,.06-6.09.09-9.13.09-2.78,0-5.57,0-8.35-.09q-8.79-.18-17.47-.73t-17.48-1.47A403.06,403.06,0,0,1,97.09,500C97.09,277.48,277.48,97.09,500,97.09S902.91,277.48,902.91,500A401.92,401.92,0,0,1,768.08,800.79Z"/><path class="cls-6" d="M170.29,210c7.14,5.71,8.7,13.54-.13,24.57l-11.89,14.85L114.4,214.34l11.74-14.66c7.52-9.41,15-10.07,21.75-4.7,5,4,6.33,8.66,4.37,14.19l.25.2C158.14,205.55,164.27,205.21,170.29,210Zm-43.61,2.21,11.72,9.38,5.91-7.4c3.52-4.39,3.13-7.88-.95-11.14-4.32-3.46-7.25-2.63-10.76,1.76Zm36.65,4c-5.58-4.46-9.83-2.11-13.24,2.15L144,226.08,157.64,237l6.07-7.58C168.12,223.91,168,220,163.33,216.28Z"/><path class="cls-6" d="M216.72,185.18l-18.82-8c-.58.66-1.22,1.38-1.92,2.05l-7,6.69,12.82,13.5L195,205.79,156.32,165l13.8-13.1c8.5-8.07,18.4-9.06,27.08.08,5.69,6,7.06,12.22,5,18.19l21.36,8.51Zm-26.43-12c4.13-3.92,6.29-8.52.27-14.87s-10.62-4.31-14.75-.38l-7.05,6.68,14.48,15.26Z"/><path class="cls-6" d="M256,119.63c11.49,16.15,10.52,27.68-1.32,36.09s-23.11,5.6-34.6-10.56-10.45-27.73,1.39-36.15S244.46,103.4,256,119.63Zm-7.46,5.3c-8.74-12.3-15.28-14.16-22.28-9.18s-7.46,11.8,1.28,24.1S242.88,154,249.88,149,257.28,137.23,248.53,124.93Z"/><path class="cls-6" d="M332.35,110.81l-8,3.92-28.6-32.64-.57.28,8.2,42.64-8,3.92L259.2,84.1l8.57-4.21L293,112.76l.57-.28-8.36-41.13,7.93-3.89L320.46,99.3,321,99,310.58,58.91l8.51-4.17Z"/><path class="cls-6" d="M381.24,81.18l-20,6.21.3,12.35-9,2.81-.66-58.63L364.33,40,397,88.71l-9,2.81Zm-4.5-6.93L361.52,51l-1.15.36L361,79.14Z"/><path class="cls-6" d="M444.14,80.18l-11-17.25c-.86.22-1.8.45-2.75.6l-9.59,1.54,3,18.39-9.19,1.48-8.92-55.48,18.78-3c11.57-1.86,20.3,2.92,22.3,15.36,1.32,8.16-1.07,14.07-6.16,17.82l12.83,19.07Zm-15-24.81c5.63-.91,10-3.48,8.62-12.12-1.36-8.48-6.33-9.55-12-8.64l-9.59,1.54,3.34,20.76Z"/><path class="cls-6" d="M512,48.16c.4,20.47-7.79,28.34-24.65,28.67l-15.65.31L470.6,21l15.65-.31C503.1,20.32,511.6,27.78,512,48.16Zm-9.15.18c-.31-15.89-5.05-19.89-15.48-19.68l-7.46.14.78,40.13,7.47-.15C498.59,68.58,503.17,64.39,502.85,48.34Z"/><path class="cls-6" d="M597,73.7l5.09,6.23c-5.33,5.5-11.21,7.14-19.09,5.6-13.71-2.67-20.31-12.87-16.5-32.41S580.27,26.61,594,29.28c7.88,1.53,12.72,5.26,15.6,12.28l-7.06,3.94c-1.62-4.73-5.23-7.15-10.12-8.11-7.64-1.48-14,2.67-16.9,17.48s1.46,21.06,9.1,22.55C589.49,78.37,593.75,77.48,597,73.7Z"/><path class="cls-6" d="M667.92,80.49c-6.46,18.75-16.39,24.66-30.13,19.93s-18-15.54-11.53-34.29,16.47-24.63,30.2-19.9S674.41,61.67,667.92,80.49Zm-8.65-3c4.92-14.27,2.62-20.66-5.5-23.46s-13.94.79-18.86,15.06-2.55,20.69,5.57,23.49S654.35,91.78,659.27,77.51Z"/><path class="cls-6" d="M721.65,114.65c-5.8,11.28-15.48,16.06-28,9.63s-14.38-17.14-8.58-28.42l16.19-31.48,8.14,4.18L693.24,100c-3.71,7.21-2.85,13.25,4.22,16.89s12.34.75,16-6.46L729.7,79l8.14,4.18Z"/><path class="cls-6" d="M793.26,120.13,760.78,166l-9.3-6.59,9.43-44.27-.26-.19-24,33.93-7.47-5.29,32.48-45.85,9.3,6.59-9.38,44.21.26.19,24-33.87Z"/><path class="cls-6" d="M834,167.08,824.27,158l-32.63,35.1-6.7-6.23,32.62-35.1-9.87-9.18,5.63-6.06L839.66,161Z"/><path class="cls-6" d="M844.94,218.74l-16.73,13.9-5.85-7,16.73-13.9,15.41-35.34,6.31,7.59-11.39,25.11,26.83-6.53,6.26,7.53Z"/><path class="cls-6" d="M105.39,295.37l-4.34,8.6a2.4,2.4,0,0,1-3.59,1.25l-8.24-4.15a2.4,2.4,0,0,1-1.14-3.63l4.33-8.6c.8-1.58,1.94-1.9,3.52-1.11l8.25,4.15C105.75,292.68,106.18,293.79,105.39,295.37Z"/><path class="cls-6" d="M60.48,394.86c-19.66-5.69-24.74-15.85-20-32l4.35-15,54,15.63-4.36,15C89.71,394.64,80.06,400.54,60.48,394.86ZM63,386.07c15.27,4.43,20.49,1.09,23.4-8.93L88.49,370,49.94,358.81,47.87,366C45,376,47.6,381.61,63,386.07Z"/><path class="cls-6" d="M31.39,446l-8.17-1.27L28.29,412l55.54,8.6-5,32.36-8.18-1.26,3.62-23.32L59.18,426l-3.09,20-8.17-1.26,3.09-20-15.94-2.47Z"/><path class="cls-6" d="M76.22,519.91,20,519.19l.11-9.15,41.1.52v-.24L20.3,498.48l.11-8.43,41.24-10.79V479l-41.09-.53.12-9.15,56.18.73L76.69,483,33.36,494.15v.48l43,12.36Z"/><path class="cls-6" d="M55.92,585.2C36.29,588,26.5,581.82,24.46,567.43s5.65-23.09,25.29-25.87S79.18,545,81.21,559.41,75.63,582.41,55.92,585.2Zm-1.28-9.06C69.58,574,74.23,569.07,73,560.57s-7.06-12.06-22-10-19.58,7.15-18.38,15.66S39.69,578.25,54.64,576.14Z"/><path class="cls-6" d="M55.83,641.59,52.59,649c-7.32-2.25-11.45-6.74-13.66-14.45-3.85-13.43,2.24-23.94,21.37-29.43s29.87.2,33.72,13.63c2.21,7.71,1.09,13.71-3.85,19.47l-6.72-4.5c3.48-3.59,4-7.91,2.62-12.7-2.14-7.48-8.74-11.26-23.25-7.1s-18.09,10.86-15.94,18.35C48.25,637,51,640.39,55.83,641.59Z"/><path class="cls-6" d="M65.05,702.48l14-15c-.43-.78-.89-1.63-1.27-2.51l-3.9-8.9-17.06,7.48L53,675.06l51.47-22.55,7.63,17.42c4.71,10.74,2.28,20.39-9.27,25.45-7.57,3.32-13.89,2.49-18.79-1.49l-15.25,17.2ZM85.3,681.69c2.29,5.22,5.88,8.82,13.89,5.31s7.66-8.53,5.37-13.75l-3.89-8.89L81.4,672.79Z"/><path class="cls-6" d="M106.58,753.24,95.66,735.37l-11.9,3.32-4.94-8.08,56.69-15,6.82,11.16-39.18,43.62-4.94-8.08Zm5.61-6.07L131,726.73l-.63-1-26.78,7.44Z"/><path class="cls-6" d="M172.4,781.88l-8.25-10.47-37.63,29.67-5.66-7.19,37.63-29.66-8.35-10.59,6.49-5.12,22.26,28.24Z"/><path class="cls-6" d="M197.7,796.72,157.14,835.6l-6.44-6.72L191.26,790Z"/><path class="cls-6" d="M209.24,864.48l1.39,7.91c-7.34,2.2-13.27.75-19.39-4.44-10.65-9-11.42-21.16,1.46-36.34s25-16.41,35.61-7.37c6.13,5.19,8.52,10.8,7.6,18.34l-8.08,0c.9-4.92-1.07-8.8-4.86-12-5.94-5-13.53-4.52-23.29,7s-9,19.08-3.09,24.11C200.38,864.86,204.54,866.17,209.24,864.48Z"/><path class="cls-6" d="M294.6,916.39c-4.74,8.66-15.64,10.2-25.22,5-7.68-4.19-12.82-12-12.08-20.41l7.82-.58a16.12,16.12,0,0,0,8.22,13.74c4,2.16,10.12,3.42,13-1.86,2.43-4.44-.4-8.46-5.69-14.36-7.66-8.4-10.6-15.41-6.83-22.31,4.27-7.82,14.25-9.5,23.26-4.57,8.74,4.77,11.75,12.82,11.61,18.6l-7.69,1c-.94-6.64-3.65-10.05-7.74-12.28s-9.07-2.49-11.38,1.74c-1.62,3-.75,5.9,4.21,11.72C292.8,899.76,299.6,907.23,294.6,916.39Z"/><path class="cls-6" d="M358.94,929.5c-7.09,18.52-17.22,24.1-30.79,18.9s-17.46-16.13-10.37-34.65,17.29-24.07,30.86-18.88S366.05,910.9,358.94,929.5Zm-8.55-3.27c5.39-14.1,3.31-20.57-4.71-23.64s-14,.33-19.36,14.43-3.24,20.59,4.79,23.66S345,940.32,350.39,926.23Z"/><path class="cls-6" d="M408.16,957l4.86,6.41c-5.53,5.31-11.46,6.73-19.28,4.9-13.6-3.16-19.83-13.6-15.31-33s14.7-26,28.31-22.83c7.82,1.82,12.51,5.72,15.14,12.84l-7.2,3.68c-1.44-4.78-5-7.34-9.82-8.47-7.58-1.76-14.1,2.16-17.52,16.86s.69,21.1,8.28,22.86C400.46,961.37,404.75,960.64,408.16,957Z"/><path class="cls-6" d="M451.3,920.7l-7.13,55.73-9.23-1.18,7.13-55.73Z"/><path class="cls-6" d="M501.63,968l-20.94-.42-3.61,11.81-9.47-.19,17.9-55.84,13.08.27,15.64,56.51-9.47-.19Zm-2.09-8-7.08-26.87-1.21,0-8.16,26.57Z"/><path class="cls-6" d="M568.48,975.19l-31.69,3.39-6-55.87,9.09-1L545,969.38,567.6,967Z"/><path class="cls-6" d="M589.1,914.15l11.23,55.05-9.12,1.86L580,916Z"/><path class="cls-6" d="M656.32,937.26c2.93,9.42-3.55,18.33-14,21.57-8.36,2.6-17.56.84-23.07-5.52l5-6a16.14,16.14,0,0,0,15.59,3.64c4.29-1.34,9.49-4.89,7.71-10.64-1.51-4.83-6.36-5.58-14.28-5.9-11.37-.33-18.45-3.09-20.78-10.6-2.65-8.51,3.08-16.85,12.89-19.9,9.51-2.95,17.38.48,21.44,4.6l-4.62,6.23c-5.43-3.94-9.76-4.36-14.21-3s-8.09,4.79-6.66,9.39c1,3.22,3.71,4.64,11.34,5.13C643.12,927,653.22,927.29,656.32,937.26Z"/><path class="cls-6" d="M692.76,886.46l-12.16,5.46,19.63,43.72-8.35,3.74-19.62-43.71L660,901.19l-3.38-7.55,32.81-14.72Z"/><path class="cls-6" d="M756,887c5.08,8.46.91,18.65-8.45,24.28-7.5,4.5-16.86,5-23.72.11l3.45-7a16.11,16.11,0,0,0,16-.16c3.85-2.32,8.06-7,5-12.16-2.61-4.33-7.51-3.92-15.27-2.34-11.12,2.37-18.65,1.38-22.7-5.37-4.59-7.63-1-17.09,7.8-22.39,8.53-5.12,17-3.66,21.91-.62l-3,7.15c-6.21-2.54-10.51-1.92-14.51.48s-6.72,6.57-4.24,10.7c1.74,2.89,4.71,3.63,12.24,2.29C740.77,880.17,750.65,878.07,756,887Z"/><path class="cls-6" d="M823.71,815.81c13.49,14.53,14,26.08,3.37,36s-22.18,8.54-35.67-6-14-26.14-3.32-36S810.17,801.22,823.71,815.81ZM817,822c-10.26-11.06-17-12-23.28-6.2s-5.87,12.67,4.4,23.73,17,12,23.34,6.16S827.27,833.1,817,822Z"/><path class="cls-6" d="M829,779.89l11.75,9.72L853.61,774l6.37,5.27-12.9,15.59,18.8,15.56-5.83,7-43.29-35.82,20.88-25.24,6.37,5.28Z"/><path class="cls-6" d="M918,710.38l-9.81,18.5,8.91,8.54-4.44,8.37-41.77-41.14L877,693.09l57.49,11.51L930.06,713Zm-8.07-1.74-27.18-5.79-.57,1.06,20,19.26Z"/><path class="cls-6" d="M908,616l53.06,18.48-3,8.64-38.81-13.51-.08.23,35.09,24.2L951.49,662,909,659.21l-.08.23L947.69,673l-3,8.64-53.06-18.47,4.25-12.21L940.5,654l.16-.45-36.9-25.34Z"/><path class="cls-6" d="M966,573.25l8.11,1.6-6.41,32.52L912.6,596.52l6.33-32.14L927,566l-4.56,23.16,15,2.94,3.9-19.84,8.12,1.59-3.91,19.85,15.83,3.12Z"/><path class="cls-6" d="M979.39,521l-19.29,6.81c0,.88,0,1.85,0,2.81l-.67,9.69L978,541.59l-.64,9.29L921.28,547l1.31-19c.8-11.7,7.43-19.13,20-18.26,8.25.56,13.47,4.22,16,10L980,511.63Zm-27.57,9c.39-5.68-1.13-10.53-9.86-11.13-8.57-.59-10.73,4-11.13,9.69l-.66,9.69,21,1.44Z"/><path class="cls-6" d="M923.14,480.48l56.15-1.93.32,9.3-56.15,1.93Z"/><path class="cls-6" d="M959.75,422.3l4.24-6.82c6.93,3.26,10.38,8.29,11.48,16.24,1.91,13.84-5.61,23.38-25.33,26.1s-29.54-4.43-31.45-18.27c-1.09-7.95.87-13.73,6.58-18.73l6,5.41c-3.95,3.06-5.08,7.26-4.4,12.19,1.07,7.71,7.06,12.4,22,10.34s19.45-8.19,18.39-15.91C966.6,427.92,964.38,424.18,959.75,422.3Z"/><path class="cls-6" d="M947.42,362.81,953.13,383h12.35l2.58,9.11-58.63-.83-3.56-12.59,49.48-31.45,2.58,9.11Zm-7,4.33-23.64,14.62.33,1.16,27.79.05Z"/><path class="cls-6" d="M900,306l-4.31-8.62a2.4,2.4,0,0,1,1.15-3.63l8.26-4.12a2.39,2.39,0,0,1,3.59,1.25l4.3,8.62c.79,1.58.36,2.69-1.22,3.48l-8.25,4.13C901.89,307.9,900.74,307.57,900,306Z"/></g></g></svg>