<svg xmlns="http://www.w3.org/2000/svg" viewBox="0 0 126.7 79.05"><defs><style>.cls-1{fill:#fff;}</style></defs><g id="Layer_2" data-name="Layer 2"><g id="Layer_1-2" data-name="Layer 1"><path class="cls-1" d="M9.3,25.42H.06L4,.52h9.06c6.42,0,11.8,2.31,11.8,9.6C24.85,20.11,18.86,25.42,9.3,25.42ZM12.58,7.23H10.81L9,18.53h1.8c4.3,0,6-3.32,6-7.22C16.8,8.49,15.32,7.23,12.58,7.23Z"/><path class="cls-1" d="M45.13.52,44.08,7H34.92l-.44,2.63h8.66l-1,6.46H33.47L33,18.89h9.53l-1,6.53H24.13L28.06.52Z"/><path class="cls-1" d="M76.43.52,72.5,25.42H64.59L68.53.52Z"/><path class="cls-1" d="M94.55,9A5.6,5.6,0,0,0,90,6.79c-4,0-6,4.12-6,7.66,0,2.59,1.31,4.67,4.08,4.67.88,0,2.81-.19,3.43-.92l.29-1.75H88.06l1-6.16H100.5L98.75,21.52c-3.83,3.14-6.93,4.42-12,4.42-6.38,0-11-3.72-11-10.36C75.8,6.57,81.93,0,91.05,0c4,0,7,1.17,9.52,4.41Z"/><path class="cls-1" d="M126.7.52l-3.93,24.9h-8.23l-5-13.71c-.46,4.58-1.3,9.12-2,13.71H99.82L103.75.52h8.55L117,14.23c.44-4.58,1.3-9.13,2-13.71Z"/><path class="cls-1" d="M82.74,27.08l-1,6.38H76.1L73.18,52H65.27L68.2,33.46H62.57l1-6.38Z"/><path class="cls-1" d="M106.74,27.08l-4,24.89h-7.9l1.48-9.16H89.89L88.44,52h-7.9l3.94-24.89h7.9l-1.41,9h6.42l1.45-9Z"/><path class="cls-1" d="M125.67,27.08l-1,6.45h-9.16L115,36.17h8.66l-1,6.46H114l-.44,2.81h9.53l-1,6.53H104.67l3.93-24.89Z"/><path class="cls-1" d="M31.54,53.63,29,78.53H21.22l2-14-5.27,14H11.08l-.83-14-2.49,14H0l5.34-24.9h10.1L16.31,67l5.12-13.39Z"/><path class="cls-1" d="M51.61,53.6l-1,6.46H41.39L41,62.7h8.66l-1,6.46H40L39.52,72H49L48,78.5H30.61l3.93-24.9Z"/><path class="cls-1" d="M74.61,78.53H66L65.66,75H58.91l-1.48,3.5H49.21l12.27-24.9h8.73ZM65,68.75l-.72-6.49-2.74,6.49Z"/><path class="cls-1" d="M102.79,53.6,98.86,78.5H90.63l-5-13.71c-.46,4.58-1.29,9.13-2,13.71H75.91l3.93-24.9h8.55l4.69,13.72c.44-4.59,1.3-9.13,2-13.72Z"/><path class="cls-1" d="M119.34,62.06a9.72,9.72,0,0,0-5.59-2.41c-.55,0-1.87.15-1.87,1,0,1.9,9.47,1.61,9.47,8.25s-5.81,10.16-11.88,10.16a13.43,13.43,0,0,1-8.84-3.4l4.57-6.24a9.93,9.93,0,0,0,6.06,2.74c.55,0,1.87-.15,1.87-1,0-2.19-9.39-1.39-9.39-8.18,0-6.54,5.33-9.87,11.4-9.87a13.15,13.15,0,0,1,8.14,3Z"/><path class="cls-1" d="M62,9a9.65,9.65,0,0,0-5.59-2.41c-.55,0-1.86.15-1.86,1,0,1.89,9.46,1.6,9.46,8.25S58.2,25.94,52.13,25.94a13.49,13.49,0,0,1-8.84-3.4l4.57-6.25A9.9,9.9,0,0,0,53.92,19c.55,0,1.87-.14,1.87-1,0-2.2-9.39-1.39-9.39-8.19C46.4,3.32,51.73,0,57.8,0a13.2,13.2,0,0,1,8.14,3Z"/></g></g></svg>