<svg xmlns="http://www.w3.org/2000/svg" viewBox="0 0 693 209.75"><defs><style>.cls-1{fill:#0b1c30;}.cls-2{fill:#fff;}</style></defs><g id="Layer_2" data-name="Layer 2"><g id="Layer_1-2" data-name="Layer 1"><path class="cls-1" d="M0,0H19.17V162.67H0Z"/><path class="cls-1" d="M105.17,59.15c30,0,52.37,22.56,52.37,51.76s-22.35,51.76-52.37,51.76-52.36-22.55-52.36-51.76S75.16,59.15,105.17,59.15Zm0,87c19.73,0,34.25-15.3,34.25-35.25S124.9,75.67,105.17,75.67,70.93,91,70.93,110.91,85.43,146.16,105.17,146.16Z"/><path class="cls-1" d="M191.41,182.54C201,188.87,212.07,193,223.32,193c19.25,0,32.14-11.46,32.14-30.49v-7.37l-.41-.2c-7,4.7-16.78,7.77-27.43,7.77-27.41,0-49.31-20.66-49.31-50.34,0-28.44,19.43-52.79,52.18-52.79a57.45,57.45,0,0,1,25.57,5.73l17.82-3.08v99.86c0,29.48-19.65,47.69-50.56,47.69a71.46,71.46,0,0,1-31.91-7.56Zm38.88-36c9.21,0,19-3.27,25.17-8.19V82.88a51.83,51.83,0,0,0-25.37-7c-20.27,0-33.16,15.57-33.16,35.21C196.93,131.37,210.44,146.52,230.29,146.52Z"/><path class="cls-2" d="M296.19,60h18.72V75l.41.2a37.32,37.32,0,0,1,30.36-16,25.44,25.44,0,0,1,6.65.83V78.49a29.75,29.75,0,0,0-7.28-.83c-13.93,0-23.7,7.06-30.14,18.08v66.54H296.19Z"/><path class="cls-2" d="M378.48,155.62C372,150.8,368,143.34,368,133.68c0-11.09,5.23-19.14,13.09-24.18,7.46-4.83,17.53-6.64,27.8-6.64A86.85,86.85,0,0,1,430,105.47V97.22c0-7.25-1.82-12.69-5.64-16.32-3.83-3.43-9.87-5.43-18.33-5.43a51.72,51.72,0,0,0-30.41,9.86V67.62c7.64-4.64,18.32-8.47,33-8.47,12.09,0,22.55,2.61,29.6,9.06,5.84,5.25,9.88,13.71,9.88,26v42.09c0,6.05,2.21,10.48,7.66,10.48a14.07,14.07,0,0,0,5.84-1.41v15.1a26,26,0,0,1-9.68,1.82c-7.86,0-15.3-3.43-19.12-10.48h-.41c-5.65,5.23-17.13,10.87-30.43,10.87C394,162.67,385.12,160.66,378.48,155.62ZM430,137.91V119.38a74.83,74.83,0,0,0-19.33-2.63c-12.3,0-24.37,3.63-24.37,15.3,0,9.68,8.25,14.52,18.92,14.52A41.43,41.43,0,0,0,430,137.91Z"/><path class="cls-2" d="M483.64,61.42h18.54V74.17l.4.22c8.85-8.87,21.2-15.24,35.39-15.24,11.13,0,20.6,3.91,27,11.12,5.56,6.38,8.44,14.19,8.44,29.84v62.56H554.87v-59c0-10.51-1.45-16.68-4.75-20.6-4.12-4.93-10.71-6.59-16.25-6.59-11.53,0-24.5,7.21-31.69,16.88v69.36H483.64Z"/><path class="cls-2" d="M596.5,0h19.27V103.48l.41.21,47.08-46h24.6l-48.14,46.65L693,162H667.76l-51.58-56.61-.41.21V162H596.5Z"/><path class="cls-1" d="M296.3,37.87,289,30.54,324.26,0l35.3,30.54-7.34,7.33-28-19Z"/></g></g></svg>