<svg xmlns="http://www.w3.org/2000/svg" viewBox="0 0 67.56 71.77"><defs><style>.cls-1{fill:#21ff5b;}.cls-2{fill:#c2a762;}.cls-3{fill:#866d2c;}.cls-4{fill:#b2923b;}.cls-5{fill:#fff;}</style></defs><g id="Layer_2" data-name="Layer 2"><g id="Layer_1-2" data-name="Layer 1"><path class="cls-1" d="M33.56,18.3l1.34.77V17.53Zm0,0,1.34.77V17.53Zm0,0,1.34.77V17.53ZM36.24,0,34.9.77,21.73,8.38l-1.34.77v18.3l1.34.77,2.68-1.54,10.5-6.06,1.34-.77,1.35-.78V.77ZM23.08,24.36V10.7l1.33-.79,10.5-6.05V17.53l-1.34.77ZM33.57,18.3l1.34.77V17.53Zm0,0,1.34.77V17.53Zm0,0,1.34.77V17.53Z"/><path class="cls-1" d="M50.76,8.38,37.6.77,36.24,0,34.9.77v18.3l1.34.78,1.36.77,10.5,6.06,2.68,1.54,1.34-.77V9.15Zm-1.34,16L38.92,18.3l-1.32-.77V3.87l10.48,6,1.34.78Z"/><polygon class="cls-2" points="46.87 12.17 36.24 6.03 25.62 12.17 36.24 18.3 46.87 12.17"/><polygon class="cls-2" points="46.87 12.17 42.27 14.82 41.64 15.19 36.24 18.3 25.61 12.17 30.5 9.35 31.13 8.98 36.24 6.03 46.87 12.17"/><polygon class="cls-3" points="25.62 12.17 25.62 24.44 36.24 30.58 36.24 18.3 25.62 12.17"/><polygon class="cls-4" points="46.87 12.17 36.24 18.3 36.24 30.58 46.87 24.44 46.87 12.17"/><polygon class="cls-4" points="42.86 15.13 42.58 15.67 41.64 15.19 30.5 9.35 31.13 8.98 42.27 14.82 42.86 15.13"/><path class="cls-1" d="M37.6,17.53v1.54l1.34-.77Zm0,0v1.54l1.34-.77Zm0,0v1.54l1.34-.77ZM50.77,8.38,48.08,9.91,37.6,16l-1.34.78-1.34.77v18.3l1.34.78,1.34-.78,13.17-7.61,1.34-.77V9.15ZM37.6,32.73V19.07l1.34-.77,10.48-6.05V25.91l-1.34.77Zm0-15.2v1.54l1.34-.77Zm0,0v1.54l1.34-.77Zm0,0v1.54l1.34-.77Z"/><path class="cls-1" d="M36.24,16.76,34.9,16,24.41,9.91,21.73,8.38l-1.34.77v18.3l1.34.77L34.9,35.83l1.34.78,1.34-.78V17.53Zm-1.34,16-10.5-6-1.32-.77V12.25L33.57,18.3l1.34.77Z"/><path class="cls-5" d="M25.39,40,15.09,65.61H10.3L0,40H4.27a1.8,1.8,0,0,1,1.12.33,1.84,1.84,0,0,1,.64.84l5.54,14.74c.21.55.42,1.17.63,1.8s.39,1.34.58,2.05c.16-.72.32-1.41.51-2.05s.37-1.25.58-1.8l5.49-14.74a2,2,0,0,1,.63-.81A1.75,1.75,0,0,1,21.11,40Z"/><path class="cls-5" d="M32.14,42.89A2.67,2.67,0,0,1,31.9,44a3.25,3.25,0,0,1-.64.91,3.06,3.06,0,0,1-.93.63,2.94,2.94,0,0,1-1.17.23,2.83,2.83,0,0,1-1.11-.23A2.93,2.93,0,0,1,26.51,44a2.53,2.53,0,0,1-.23-1.12,2.87,2.87,0,0,1,.22-1.15,2.92,2.92,0,0,1,1.55-1.52A2.83,2.83,0,0,1,29.16,40a3,3,0,0,1,2.1.84,3.19,3.19,0,0,1,.64.91A2.81,2.81,0,0,1,32.14,42.89Zm-.56,5V65.61H26.83V47.92Z"/><path class="cls-5" d="M51.4,48.5v1.73a.91.91,0,0,1-.24.65,1.55,1.55,0,0,1-.76.37L49,51.54a5.26,5.26,0,0,1,.29,1.8,5.2,5.2,0,0,1-.55,2.38,5.52,5.52,0,0,1-1.46,1.8A6.81,6.81,0,0,1,45,58.67a9.86,9.86,0,0,1-4.55.24c-.48.3-.72.63-.72,1a.72.72,0,0,0,.49.72,4.38,4.38,0,0,0,1.28.32c.53.07,1.14.1,1.82.12s1.37.06,2.08.11a17.78,17.78,0,0,1,2.07.29,5.91,5.91,0,0,1,1.81.72,3.79,3.79,0,0,1,1.29,1.29,4,4,0,0,1,.49,2.08,5,5,0,0,1-.59,2.3,6.11,6.11,0,0,1-1.69,2,8.92,8.92,0,0,1-2.72,1.41,11.69,11.69,0,0,1-3.67.53,14.08,14.08,0,0,1-3.54-.39,8.1,8.1,0,0,1-2.49-1,4.4,4.4,0,0,1-1.46-1.48,3.57,3.57,0,0,1-.49-1.75,2.93,2.93,0,0,1,.72-2,4.93,4.93,0,0,1,2-1.32,3.08,3.08,0,0,1-1.07-1,2.78,2.78,0,0,1-.4-1.59,3,3,0,0,1,.58-1.66A4.22,4.22,0,0,1,38,58.1a5.63,5.63,0,0,1-2.14-1.94,5,5,0,0,1-.79-2.82A5.23,5.23,0,0,1,35.62,51a5.45,5.45,0,0,1,1.5-1.81A7.18,7.18,0,0,1,39.38,48a9.74,9.74,0,0,1,2.84-.39,8.5,8.5,0,0,1,4,.89ZM46.69,66.33a1,1,0,0,0-.29-.75,2,2,0,0,0-.78-.47,5.8,5.8,0,0,0-1.17-.25c-.44,0-.92-.09-1.42-.12l-1.56-.07c-.54,0-1.07-.07-1.58-.12a3.63,3.63,0,0,0-1,.84,1.74,1.74,0,0,0-.38,1.11,1.52,1.52,0,0,0,.85,1.41,4.16,4.16,0,0,0,1.22.4,12.1,12.1,0,0,0,3.86,0,4.06,4.06,0,0,0,1.31-.44,1.64,1.64,0,0,0,.92-1.53ZM42.21,56.1a2.85,2.85,0,0,0,2.16-.74,2.66,2.66,0,0,0,.69-1.9,2.57,2.57,0,0,0-.69-1.91,2.92,2.92,0,0,0-2.16-.7,2.86,2.86,0,0,0-2.14.7,2.57,2.57,0,0,0-.69,1.91,2.68,2.68,0,0,0,.7,1.89A2.75,2.75,0,0,0,42.21,56.1Z"/><path class="cls-5" d="M59.31,42.89A2.67,2.67,0,0,1,59.07,44a3.09,3.09,0,0,1-.65.91,2.83,2.83,0,0,1-.94.63,2.94,2.94,0,0,1-1.17.23,2.9,2.9,0,0,1-2-.84,2.94,2.94,0,0,1-.63-.93,2.51,2.51,0,0,1-.23-1.11,2.64,2.64,0,0,1,.23-1.14,3,3,0,0,1,.62-.91,3,3,0,0,1,2-.84,3,3,0,0,1,2.1.84,3.23,3.23,0,0,1,.65.91A2.81,2.81,0,0,1,59.31,42.89Zm-.57,5V65.61H54V47.92Z"/><path class="cls-5" d="M67.56,40V65.61H62.82V40Z"/></g></g></svg>