<svg xmlns="http://www.w3.org/2000/svg" xmlns:xlink="http://www.w3.org/1999/xlink" viewBox="0 0 39.83 45"><defs><style>.cls-1{fill:none;}.cls-2{clip-path:url(#clip-path);}.cls-3{fill:#3b434d;}.cls-4{fill:#fff;}.cls-5{fill:#63b2e2;}</style><clipPath id="clip-path" transform="translate(0 0)"><rect class="cls-1" width="39.83" height="45"/></clipPath></defs><g id="Layer_2" data-name="Layer 2"><g id="Layer_1-2" data-name="Layer 1"><g id="logo_md"><g class="cls-2"><g class="cls-2"><path class="cls-3" d="M29,30.85H10.84l.54,7.49C11.38,42,13.82,45,17.5,45h4.83c3.68,0,6.13-3,6.13-6.66Z" transform="translate(0 0)"/><path class="cls-3" d="M28.81,31.41a8.9,8.9,0,1,0-8.89,8.9,8.89,8.89,0,0,0,8.89-8.9" transform="translate(0 0)"/><path class="cls-4" d="M27.67,30.48c0-3.71-4.05-6.71-7.75-6.71s-7.76,3-7.76,6.71,4.05,6.71,7.76,6.71,7.75-3,7.75-6.71" transform="translate(0 0)"/><path class="cls-5" d="M19.92,0l9.89,23.94,10,3.94C39.83,29.78,32,32,20.64,32S0,29.78,0,27.88l10-4,6-13.94-4,2Z" transform="translate(0 0)"/><path class="cls-3" d="M25.92,35.27l-.13,0-.27.05-.53,0a4.62,4.62,0,0,1-1-.11,4.23,4.23,0,0,1-1-.35,4.39,4.39,0,0,1-.89-.58,3.87,3.87,0,0,0-.64-.51,1.32,1.32,0,0,0-.64-.16,1.37,1.37,0,0,0-.85.29,1.42,1.42,0,0,0-.86-.29,1.32,1.32,0,0,0-.64.16,3.87,3.87,0,0,0-.64.51,4.62,4.62,0,0,1-.88.58,4.48,4.48,0,0,1-1,.35,4.62,4.62,0,0,1-1.05.11l-.53,0-.26-.05-.13,0c-.06,0-.08,0,0,0a5,5,0,0,0,.78.74,4.75,4.75,0,0,0,.93.53,4.56,4.56,0,0,0,.79.26,4.48,4.48,0,0,0,3-.37,2.61,2.61,0,0,0,.57-.36,2.55,2.55,0,0,0,.56.36,4.49,4.49,0,0,0,3,.37,4.56,4.56,0,0,0,.79-.26,4.75,4.75,0,0,0,.93-.53,5,5,0,0,0,.78-.74c0-.05,0-.05,0,0" transform="translate(0 0)"/></g></g></g></g></g></svg>