<svg xmlns="http://www.w3.org/2000/svg" xmlns:xlink="http://www.w3.org/1999/xlink" viewBox="0 0 215.47 45.34"><defs><style>.cls-1{fill:none;}.cls-2{clip-path:url(#clip-path);}.cls-3{fill:#3b434d;}.cls-4{fill:#fff;}</style><clipPath id="clip-path" transform="translate(0 0)"><rect class="cls-1" width="215.47" height="45.34"/></clipPath></defs><g id="Layer_2" data-name="Layer 2"><g id="Layer_1-2" data-name="Layer 1"><g id="logotype_med"><g class="cls-2"><rect class="cls-3" x="71.7" y="0.03" width="11.09" height="45.3"/><rect class="cls-3" x="121.96" y="0.03" width="11.08" height="45.3"/><g class="cls-2"><path class="cls-3" d="M183.24,0a19.27,19.27,0,0,0-7.52,9.53H162.5V45.34H151.43V9.56H137.66V0Z" transform="translate(0 0)"/><path class="cls-3" d="M32.12,36.78c-.19-.33-.36-.65-.51-1h.12c.12.33.25.65.39,1" transform="translate(0 0)"/><path class="cls-3" d="M35.1,45.3H0V0H11.09V35.8H27.5a19.16,19.16,0,0,0,7.6,9.5" transform="translate(0 0)"/><path class="cls-3" d="M87.1,35.47v9.85h15a19.18,19.18,0,0,0,4.76-.56,15.22,15.22,0,0,0,2.83-1,12.88,12.88,0,0,0,7.84-12c0-13.84-19.73-12.88-19.73-18.4,0-2.44,2.46-3.43,4.67-3.43h15.07V0h-15A17.41,17.41,0,0,0,92.9,2.74a11.67,11.67,0,0,0-2.83,2.52,12.24,12.24,0,0,0-3,8.21C87.1,27,106.83,26.75,106.83,32c0,2.63-2.38,3.48-4.59,3.48Z" transform="translate(0 0)"/><path class="cls-3" d="M67.22,0V28.17c0,10-7.36,17.13-18.56,17.13C41,45.3,35.08,42,32.12,36.78c-.19-.33-.36-.65-.51-1A17.4,17.4,0,0,1,30,28.17V0H40.85V28.17c0,4.67,3.06,7.17,7.74,7.17s7.71-2.5,7.71-7.17V0Z" transform="translate(0 0)"/><path class="cls-3" d="M67.22,0V28.17c0,10-7.36,17.13-18.56,17.13C41,45.3,35.08,42,32.12,36.78c-.19-.33-.36-.65-.51-1A17.4,17.4,0,0,1,30,28.17V0H40.85V28.17c0,4.67,3.06,7.17,7.74,7.17s7.71-2.5,7.71-7.17V0Z" transform="translate(0 0)"/><path class="cls-4" d="M204.56,1.29a.16.16,0,0,0-.09,0c.29.11.57.21.84.33a7,7,0,0,0-.75-.31" transform="translate(0 0)"/><path class="cls-3" d="M204.56,1.29a.16.16,0,0,0-.09,0c.29.11.57.21.84.33a7,7,0,0,0-.75-.31" transform="translate(0 0)"/><path class="cls-3" d="M215.42,15.76c0-.46-.07-.91-.14-1.36a15.8,15.8,0,0,0-.57-2.56c-.12-.41-.26-.81-.41-1.2s-.33-.79-.5-1.17a6.8,6.8,0,0,0-.39-.76A5,5,0,0,0,213,8a9.43,9.43,0,0,0-.94-1.36c-.17-.22-.35-.43-.53-.65s-.37-.41-.56-.6a4.75,4.75,0,0,0-.6-.59c-.2-.19-.41-.38-.62-.55a9.31,9.31,0,0,0-1.35-1l-.72-.47A14,14,0,0,0,206.14,2l-.83-.36q-.41-.18-.84-.33c-.57-.22-1.19-.39-1.81-.57l-.92-.22c-.31-.07-.62-.12-1-.17s-.62-.1-.93-.12c-.63-.09-1.29-.14-2-.17-.34,0-.67,0-1,0s-.69,0-1,0a25,25,0,0,0-3,.31l-1,.17L191,.72c-.32.09-.65.17-1,.28l-.92.31a17.69,17.69,0,0,0-1.83.79,4.3,4.3,0,0,0-.71.36c-.34.17-.67.38-1,.58a17.14,17.14,0,0,0-2,1.53l-.86.83s-.05,0-.07.07c-.25.27-.49.55-.72.82l-.29.36A13.11,13.11,0,0,0,180.67,8c-.09.12-.16.26-.24.39A15.74,15.74,0,0,0,179,11.84v0a10,10,0,0,0-.3,1.13,13.85,13.85,0,0,0-.27,1.43c-.07.45-.1.89-.14,1.34s-.05.91-.05,1.38v11A16.2,16.2,0,0,0,189.1,44a18.9,18.9,0,0,0,1.89.59c.61.15,1.24.29,1.9.39a24.57,24.57,0,0,0,4,.31,23.35,23.35,0,0,0,3.9-.31,15.86,15.86,0,0,0,1.87-.37c.66-.18,1.29-.36,1.9-.59a16.21,16.21,0,0,0,10.91-15.86v-11c0-.47,0-.93-.05-1.38M204.56,28.17a6.88,6.88,0,0,1-1.9,5.12,6.11,6.11,0,0,1-1.87,1.29,9.76,9.76,0,0,1-4,.76,9.57,9.57,0,0,1-3.93-.76,6.87,6.87,0,0,1-1.9-1.27,6.94,6.94,0,0,1-1.89-5.14v-11a9,9,0,0,1,.33-2.47c.07-.21.14-.42.22-.62a5.31,5.31,0,0,1,.67-1.22,3.87,3.87,0,0,1,.54-.67A1.53,1.53,0,0,1,191,12l.21-.19s0,0,0,0a4.57,4.57,0,0,1,.36-.29,1.31,1.31,0,0,1,.27-.19,5.59,5.59,0,0,1,1-.57,3.72,3.72,0,0,1,.77-.29,3.79,3.79,0,0,1,.72-.21,9.86,9.86,0,0,1,2.44-.27,8.28,8.28,0,0,1,1.68.14,3.18,3.18,0,0,1,.78.13,4.5,4.5,0,0,1,.74.21,5.84,5.84,0,0,1,.77.29,6.7,6.7,0,0,1,1,.57,4.7,4.7,0,0,1,.44.34,2.89,2.89,0,0,1,.41.38c.16.16.3.31.43.46a6.58,6.58,0,0,1,.38.54,4.35,4.35,0,0,1,.53,1,6.56,6.56,0,0,1,.23.62,9.4,9.4,0,0,1,.33,2.47Z" transform="translate(0 0)"/></g></g></g></g></g></svg>