<svg xmlns="http://www.w3.org/2000/svg" viewBox="0 0 364 82.24"><defs><style>.cls-1{fill:#1a1a1a;}.cls-2{fill:#6b5eae;}</style></defs><g id="Layer_2" data-name="Layer 2"><g id="Layer_1-2" data-name="Layer 1"><polygon class="cls-1" points="20.9 31.94 20.9 0 0 0 0 82.15 20.9 82.15 20.9 49.55 53.89 49.55 53.89 82.15 74.79 82.15 74.79 31.95 20.9 31.94"/><path class="cls-1" d="M116.28,82.05c-44.16.23-42.92-65.18.3-65.06,44.76-.49,43.22,65.41-.3,65.06m.27-49.68c-17-.88-16.9,34.69-.32,34.17,17.67,1.49,17.4-35.11.32-34.17"/><path class="cls-1" d="M189.58,82.15c-44.16.22-42.92-65.18.3-65.06,44.75-.49,43.21,65.41-.3,65.06m.26-49.69c-17-.88-16.9,34.7-.31,34.17,17.66,1.49,17.4-35.11.31-34.17"/><path class="cls-1" d="M232.37,5.26H252l-.14,14.59h15.25l-.39,15.9h-16.3c0,21.79-5.61,34.67,15.38,28.39l2.36,15.77c-17.79,5-39,3.48-37.33-20Z"/><path class="cls-1" d="M304.61,82.15c-8.41,0-19.45-2-25.9-5.39l4-14.59c15.67,8.3,35.87,7.6,29.41-2.09-15.65-7.55-29.62-4.21-32.32-21.13C277.92,13,314.19,14.2,331.42,22.35L327.35,36.8c-28.26-12.56-32.69-.48-25.6,2.88,5,2.22,13.85,3.23,18.35,5.43,21.79,8.71,13.9,38-15.49,37"/><rect class="cls-1" x="343.69" y="31.96" width="20.24" height="50.19"/><rect class="cls-2" x="343.46" width="20.54" height="20.54"/><rect class="cls-2" x="53.89" width="20.9" height="20.54"/></g></g></svg>